<svg xmlns="http://www.w3.org/2000/svg" width="1536" height="1024" viewBox="0 0 1536 1024"><polygon points="220,125 780,400 780,530 220,255" fill="#C5813B" stroke="#501801" stroke-width="5" /><polygon points="220,125 355,97 915,372 780,400" fill="#F4A847" stroke="#501801" stroke-width="5" /><polygon points="355,97 915,372 915,502 355,227" fill="#C5813B" stroke="#501801" stroke-width="5" /><polygon points="355,97 490,69 1050,344 915,372" fill="#F4A847" stroke="#501801" stroke-width="5" /><polygon points="490,69 1050,344 1050,474 490,199" fill="#C5813B" stroke="#501801" stroke-width="5" /><polygon points="490,69 625,41 1185,316 1050,344" fill="#F4A847" stroke="#501801" stroke-width="5" /><polygon points="625,41 1185,316 1185,446 625,171" fill="#C5813B" stroke="#501801" stroke-width="5" /><polygon points="625,41 760,13 1320,288 1185,316" fill="#F4A847" stroke="#501801" stroke-width="5" /><polygon points="220,255 780,530 780,660 220,385" fill="#C5813B" stroke="#501801" stroke-width="5" /><polygon points="220,255 355,227 915,502 780,530" fill="#F4A847" stroke="#501801" stroke-width="5" /><polygon points="355,227 915,502 915,632 355,357" fill="#C5813B" stroke="#501801" stroke-width="5" /><polygon points="355,227 490,199 1050,474 915,502" fill="#F4A847" stroke="#501801" stroke-width="5" /><polygon points="490,199 1050,474 1050,604 490,329" fill="#C5813B" stroke="#501801" stroke-width="5" /><polygon points="490,199 625,171 1185,446 1050,474" fill="#F4A847" stroke="#501801" stroke-width="5" /><polygon points="625,171 1185,446 1185,576 625,301" fill="#C5813B" stroke="#501801" stroke-width="5" /><polygon points="625,171 760,143 1320,418 1185,446" fill="#F4A847" stroke="#501801" stroke-width="5" /><polygon points="220,385 780,660 780,790 220,515" fill="#C5813B" stroke="#501801" stroke-width="5" /><polygon points="220,385 355,357 915,632 780,660" fill="#F4A847" stroke="#501801" stroke-width="5" /><polygon points="355,357 915,632 915,762 355,487" fill="#C5813B" stroke="#501801" stroke-width="5" /><polygon points="355,357 490,329 1050,604 915,632" fill="#F4A847" stroke="#501801" stroke-width="5" /><polygon points="490,329 1050,604 1050,734 490,459" fill="#C5813B" stroke="#501801" stroke-width="5" /><polygon points="490,329 625,301 1185,576 1050,604" fill="#F4A847" stroke="#501801" stroke-width="5" /><polygon points="625,301 1185,576 1185,706 625,431" fill="#C5813B" stroke="#501801" stroke-width="5" /><polygon points="625,301 760,273 1320,548 1185,576" fill="#F4A847" stroke="#501801" stroke-width="5" /><polygon points="220,515 780,790 780,920 220,645" fill="#C5813B" stroke="#501801" stroke-width="5" /><polygon points="220,515 355,487 915,762 780,790" fill="#F4A847" stroke="#501801" stroke-width="5" /><polygon points="355,487 915,762 915,892 355,617" fill="#C5813B" stroke="#501801" stroke-width="5" /><polygon points="355,487 490,459 1050,734 915,762" fill="#F4A847" stroke="#501801" stroke-width="5" /><polygon points="490,459 1050,734 1050,864 490,589" fill="#C5813B" stroke="#501801" stroke-width="5" /><polygon points="490,459 625,431 1185,706 1050,734" fill="#F4A847" stroke="#501801" stroke-width="5" /><polygon points="625,431 1185,706 1185,836 625,561" fill="#C5813B" stroke="#501801" stroke-width="5" /><polygon points="625,431 760,403 1320,678 1185,706" fill="#F4A847" stroke="#501801" stroke-width="5" /><polygon points="780,400 915,372 915,502 780,530" fill="#EEA847" stroke="#501801" stroke-width="5" /><polygon points="915,372 1050,344 1050,474 915,502" fill="#EEA847" stroke="#501801" stroke-width="5" /><polygon points="1050,344 1185,316 1185,446 1050,474" fill="#EEA847" stroke="#501801" stroke-width="5" /><polygon points="1185,316 1320,288 1320,418 1185,446" fill="#EEA847" stroke="#501801" stroke-width="5" /><polygon points="780,530 915,502 915,632 780,660" fill="#EEA847" stroke="#501801" stroke-width="5" /><polygon points="915,502 1050,474 1050,604 915,632" fill="#EEA847" stroke="#501801" stroke-width="5" /><polygon points="1050,474 1185,446 1185,576 1050,604" fill="#EEA847" stroke="#501801" stroke-width="5" /><polygon points="1185,446 1320,418 1320,548 1185,576" fill="#EEA847" stroke="#501801" stroke-width="5" /><polygon points="780,660 915,632 915,762 780,790" fill="#EEA847" stroke="#501801" stroke-width="5" /><polygon points="915,632 1050,604 1050,734 915,762" fill="#EEA847" stroke="#501801" stroke-width="5" /><polygon points="1050,604 1185,576 1185,706 1050,734" fill="#EEA847" stroke="#501801" stroke-width="5" /><polygon points="1185,576 1320,548 1320,678 1185,706" fill="#EEA847" stroke="#501801" stroke-width="5" /><polygon points="780,790 915,762 915,892 780,920" fill="#EEA847" stroke="#501801" stroke-width="5" /><polygon points="915,762 1050,734 1050,864 915,892" fill="#EEA847" stroke="#501801" stroke-width="5" /><polygon points="1050,734 1185,706 1185,836 1050,864" fill="#EEA847" stroke="#501801" stroke-width="5" /><polygon points="1185,706 1320,678 1320,808 1185,836" fill="#EEA847" stroke="#501801" stroke-width="5" /><line x1="355" y1="97" x2="915" y2="372" stroke="#6B310B" stroke-width="4" /><line x1="490" y1="69" x2="1050" y2="344" stroke="#6B310B" stroke-width="4" /><line x1="625" y1="41" x2="1185" y2="316" stroke="#6B310B" stroke-width="4" /></svg>