<svg width="480" height="320" viewBox="0 0 480 320" fill="none" xmlns="http://www.w3.org/2000/svg">
  <g opacity="0.14">
    <ellipse cx="240" cy="264" rx="120" ry="20" fill="#8B5E34"/>
  </g>
  <g stroke="#6F4A2D" stroke-width="5" stroke-linecap="round" stroke-linejoin="round">
    <path d="M118 196C118 180.536 130.536 168 146 168H290C305.464 168 318 180.536 318 196V204C318 219.464 305.464 232 290 232H146C130.536 232 118 219.464 118 204V196Z" fill="#E8C7A1"/>
    <path d="M168 136C168 122.745 178.745 112 192 112H320C333.255 112 344 122.745 344 136V144C344 157.255 333.255 168 320 168H192C178.745 168 168 157.255 168 144V136Z" fill="#D8AE7C"/>
    <path d="M146 168L184 112"/>
    <path d="M202 232L240 168"/>
    <path d="M248 232L286 168"/>
    <path d="M292 232L332 168"/>
    <path d="M188 188H286"/>
    <path d="M140 206H300"/>
    <path d="M206 142H312"/>
    <path d="M176 112L202 136"/>
    <path d="M314 112L334 138"/>
    <path d="M170 232C170 232 188 252 218 252C248 252 270 232 270 232"/>
  </g>
</svg>
